PathFileType	4	(X/Y/Z)	21_coords_data.trc
DataRate	CameraRate	NumFrames	NumMarkers	Units	OrigDataRate	OrigDataStartFrame	OrigNumFrames
30.0	30.0	5	21	m	30.0	41	71
Frame#	Time	THUMB_TIP	THUMB_IP	THUMB_MCP	THUMB_CMC	INDEX_TIP	INDEX_DIP	INDEX_PIP	INDEX_MCP	MIDDLE_TIP	MIDDLE_DIP	MIDDLE_PIP	MIDDLE_MCP	RING_TIP	RING_DIP	RING_PIP	RING_MCP	PINKY_TIP	PINKY_DIP	PINKY_PIP	PINKY_MCP	WRIST
X1	Y1	Z1	X2	Y2	Z2	X3	Y3	Z3	X4	Y4	Z4	X5	Y5	Z5	X6	Y6	Z6	X7	Y7	Z7	X8	Y8	Z8	X9	Y9	Z9	X10	Y10	Z10	X11	Y11	Z11	X12	Y12	Z12	X13	Y13	Z13	X14	Y14	Z14	X15	Y15	Z15	X16	Y16	Z16	X17	Y17	Z17	X18	Y18	Z18	X19	Y19	Z19	X20	Y20	Z20	X21	Y21	Z21
39	1.3333333333333275	0.5093884515240181	0.005458673218321719	-0.16484815245071205	0.49881635750371467	0.0006159021624694283	-0.14502951484550664	0.4819415299425937	-0.006308002274478475	-0.11980810048924095	0.4738881896261283	-0.019396173200132427	-0.0779304991781814	0.5637457919151623	0.04711396513841937	-0.16183193470836188	0.5500727147164363	0.0436020454210192	-0.15048674278331206	0.5315559814999586	0.040227794006913564	-0.13382076392264503	0.5017853911498873	0.02946728661046283	-0.1053328800984791	0.581773308073453	0.02730448590703105	-0.1430144392521795	0.5693986762082868	0.034200426332102296	-0.13173106689035957	0.548795868356532	0.04140892457621759	-0.11241859911204953	0.5140787049614304	0.029300583910822797	-0.08703642873344403	0.5884245019684183	0.023565234854091455	-0.12283666797938692	0.5759870381460763	0.02858341213608151	-0.11078978496200614	0.5577579366823494	0.033190139171066835	-0.09446012162039724	0.5250629946469757	0.02175110494403265	-0.07360562341841934	0.595955875177606	0.030511825443559015	-0.08465420630349726	0.5809262545011724	0.02372260780115909	-0.08006977328221221	0.5618810643072628	0.017044376415941143	-0.07428237533120718	0.5292296680137416	0.005906329013100509	-0.06376031891929232	0.4622830810018609	-0.023011742144276925	-0.051989820119430985
40	1.3666666666666607	0.5058084355534211	0.011355075670006598	-0.16478679676380636	0.4967565971525053	0.0048757974962546635	-0.144684976549934	0.48107253301544095	-0.004096897832960078	-0.11934092654458679	0.4737518041518271	-0.018974653822285914	-0.07792898013262095	0.5640877562175415	0.04943920796955714	-0.16056438972565779	0.5503838524546513	0.04540129629900047	-0.1494334288058528	0.5317964738754687	0.041375651954322246	-0.13299221905217873	0.5019502361126618	0.029756195476351	-0.10492397335419229	0.5845226318318202	0.03739902704802711	-0.14053023829382838	0.5707319333651683	0.041329645034226425	-0.12946828195471505	0.5485550111919367	0.04444625833461424	-0.11081672988904821	0.5140574316808727	0.029600774472971048	-0.08661597498777485	0.5911127308820199	0.03225785044068241	-0.11939440107264992	0.5772227427606924	0.034490484312185155	-0.10812126592819249	0.5575371287735725	0.035724660306090894	-0.09291819418047725	0.5249374288480703	0.02208537487193707	-0.0732725765619626	0.5951993783073167	0.03304124391894081	-0.08361401520191003	0.580370164691298	0.02577799902307132	-0.07910405986808366	0.5615146203468413	0.018482506296271906	-0.07344223574970568	0.5291459289218505	0.0063304599483371415	-0.06317193702029283	0.46228308100186094	-0.023011742144276925	-0.051989820119430985
41	1.3999999999999937	0.5035736804799379	0.01719820766427549	-0.16367606170654742	0.49551394343028626	0.009092672200437635	-0.14374264921558288	0.48063276200890376	-0.0018170422742184167	-0.1186757672877207	0.4736744228302252	-0.018460591873465826	-0.07787792699424617	0.5646571604154771	0.052241250181603416	-0.15856802744133544	0.5508793380227659	0.04770247638241021	-0.14772500468406588	0.5321636472398773	0.042987678558804254	-0.1316158944354575	0.5021536846123514	0.030352500217851852	-0.1041679344860035	0.5860659547809234	0.04596759225974423	-0.13710074930066257	0.5714279221345758	0.047471605180050336	-0.12654300591582812	0.5483495279223678	0.047258275312186626	-0.10874548471332907	0.5140561107691914	0.03013643680506828	-0.08579004729439962	0.592534157757027	0.039573745830420726	-0.11543813772656872	0.5778150973558169	0.03951332490056092	-0.10502921798354228	0.5573361769020728	0.038045238161072414	-0.09093530023954499	0.5248390523456687	0.022568187169890286	-0.07252012654549819	0.5946558100715719	0.03522080013231377	-0.08200187527919309	0.5799658232488818	0.027583416554617934	-0.07765737769761519	0.5612412570101477	0.019789077592759385	-0.07223050766794703	0.5290842671915013	0.006758669519801863	-0.06238063851878184	0.4622830810018609	-0.023011742144276925	-0.051989820119430985
42	1.4333333333333271	0.5026628860981897	0.022866383357691755	-0.16171357193403096	0.4950302894477735	0.0132411691287746	-0.14229454210709291	0.48059836686630486	0.0005456753477774967	-0.11781262943142239	0.4736629201596258	-0.017841954699714946	-0.07776659791498661	0.5653848057233272	0.0552093274212343	-0.15591771256745032	0.5514797882368501	0.05033017344643731	-0.14538944845644958	0.5325940855882003	0.0450741413184238	-0.1296505096505428	0.5023443367650271	0.03131068189987474	-0.10302052701876321	0.5868094332983355	0.053022260383030595	-0.1332248714676939	0.5717033495716494	0.05256409458709599	-0.1232450759514629	0.5481697915113952	0.04985912881261878	-0.106266726350175	0.5140195108771966	0.030950758608480733	-0.08453242650341783	0.5930656549383713	0.04540582591724962	-0.11145277163130722	0.5779696475628442	0.043694706536790306	-0.10174799797171843	0.5571189713899476	0.04020798639177159	-0.08858471324626616	0.5247176555369633	0.023241386682568366	-0.07135073345914741	0.5942668892824725	0.03710797812570665	-0.07998250822784994	0.5796595740047368	0.029207776166477517	-0.07583363496150178	0.5610098151056346	0.021063759419754025	-0.07066899526114978	0.5290050198445786	0.00726055961895955	-0.061392778006404886	0.46228308100186083	-0.023011742144276925	-0.051989820119430985
43	1.4666666666666603	0.5027169085136711	0.0283089376954766	-0.15910653615193704	0.4951094954937408	0.01736947854918336	-0.1403860794072212	0.48080777355881166	0.0030526472551254402	-0.11673636288897409	0.4737067450718033	-0.017130117772006792	-0.07759404064966041	0.5661486854887399	0.058151719260087664	-0.15268941168883948	0.5520724112757331	0.05319078458463844	-0.14243038486237253	0.5329529014124712	0.047663424105794716	-0.1270712682951495	0.5024037631377414	0.0327046500692153	-0.10144664490291205	0.5870572811416421	0.05849718841237739	-0.12912734865439424	0.5717377248564941	0.05668983747379741	-0.11963816123865653	0.5479770241167986	0.052398127860834975	-0.10331578766871752	0.5138754394248688	0.03209525107182476	-0.08279694178037833	0.5930676910106639	0.04987018769897278	-0.10762389598522071	0.5778295507014184	0.04702858543585153	-0.09841931144848176	0.5568455652453412	0.04228114733107691	-0.08587681708649475	0.5245083267150956	0.024165969668712428	-0.06972552684394812	0.5939658154072128	0.03877370175315842	-0.07765422634643115	0.5793896861313996	0.030731016918194243	-0.07367281001800968	0.5607734720674784	0.02235668834113802	-0.06876167839589259	0.5288640788125475	0.00792995476601599	-0.060127824595032575	0.4622830810018609	-0.023011742144276925	-0.051989820119430985
